<svg width="18" height="18" viewBox="0 0 18 18" fill="none" xmlns="http://www.w3.org/2000/svg">
<g clip-path="url(#clip0_152_1114)">
<path d="M14.6157 9.55083C14.2805 9.55083 13.9492 9.59987 13.6308 9.69659L9.52688 10.8327V5.02822C9.52688 4.73744 9.76344 4.50088 10.0542 4.50088C10.345 4.50088 10.5816 4.73744 10.5816 5.02822V9.13054H11.1089C13.1444 9.13054 14.8003 7.47457 14.8003 5.43913C14.8003 3.79202 13.694 2.33061 12.1078 1.88462L5.29642 0V9.04029L2.56334 9.79685C2.2406 9.8776 1.93123 10.0059 1.64369 10.1783C0.0434797 11.1378 -0.477817 13.2203 0.481667 14.8205C0.861671 15.4542 1.42343 15.9361 2.10624 16.2139C2.51328 16.3795 2.95171 16.4636 3.38955 16.4635C3.66141 16.4635 3.9331 16.4312 4.19677 16.3658L5.29642 16.0615V16.9748L8.99953 18L15.5942 16.1745L15.608 16.1705C16.286 15.9628 16.895 15.5347 17.3228 14.9651C17.7655 14.3757 17.9995 13.6736 17.9995 12.9347C17.9995 11.0688 16.4816 9.55083 14.6157 9.55083ZM5.29639 12.0037L2.52312 12.7714L2.80451 13.7879L5.29639 13.0981V14.9672L3.9364 15.3437C3.74958 15.3894 3.56185 15.4116 3.37654 15.4116C2.5729 15.4116 1.81592 14.9948 1.3862 14.2781C0.725792 13.1766 1.0846 11.7432 2.18604 11.0828C2.38587 10.963 2.6006 10.8741 2.82427 10.8187L5.29639 10.1346V12.0037ZM8.47219 5.02822V16.7597L6.35111 16.1725V1.38614L11.8244 2.90057C12.9556 3.21862 13.7456 4.26256 13.7456 5.43916C13.7456 6.71249 12.8382 7.7779 11.6363 8.0229V5.02822C11.6363 4.15589 10.9266 3.44619 10.0542 3.44619C9.18189 3.44619 8.47219 4.15589 8.47219 5.02822ZM15.3055 15.16L9.52688 16.7597V14.8905L15.4763 13.2436L15.1949 12.2271L9.52688 13.7962V11.927L13.9188 10.7112L13.9326 10.7072C14.1529 10.6397 14.3828 10.6055 14.6158 10.6055C15.9 10.6055 16.9449 11.6504 16.9449 12.9346C16.9448 13.963 16.2863 14.8565 15.3055 15.16Z" fill="#396AFF"/>
</g>
<defs>
<clipPath id="clip0_152_1114">
<rect width="18" height="18" fill="white"/>
</clipPath>
</defs>
</svg>
